<svg xmlns="http://www.w3.org/2000/svg" viewBox="0 0 512.0007 512.0016"><path d="M484.196 43.075c14.2783 1.0156 26.0508 12.7715 27.8047 27.04v2.5117 297.599c0 5.5039-1.6787 10.4209-4.2588 15.0156-5.6865 10.1543-14.2744 15.2842-26.0527 15.2842h-164.819v41.5752h31.3096c7.7656 0 14.0283 6.0371 14.0283 13.7871 0 7.7481-6.2637 13.7861-14.0283 13.7861h-184.609c-7.7646 0-13.7764-6.0381-13.7764-13.7861 0-7.749 6.0117-13.7871 13.7764-13.7871h31.3105v-41.5752h-164.821c-11.7725 0-20.2852-5.1299-26.0518-15.2842-2.5059-4.3809-4.0078-9.2451-4.0078-15.0156v-297.6-2.5107c1.7529-14.2686 12.7764-26.0244 27.5527-27.04v-0.7491h2.5068 451.63 2.5069v0.7491z m0 29.551999999999992h-0.001v-2.5117h-456.643v2.5117 297.6c0 1.7637 0.7539 2.5117 2.5069 2.5117h451.63c1.7578 0 2.5068-0.748 2.5068-2.5117v-297.6z"></path></svg> 