<svg xmlns="http://www.w3.org/2000/svg" viewBox="0 0 512 512.0016"><path d="M480 143.687c17.6318 0 32 14.3682 32 32v80c0 8.832-7.168 16-16 16h-16v192c0 17.6328-14.3682 32-32 32h-384c-17.6318 0-32-14.3672-32-32v-192h-16c-8.832 0-16-7.168-16-16v-80c0-17.6318 14.3682-32 32-32h101.248c-7.2637-4.96-13.5039-9.8877-17.8877-14.3037-25.7607-25.9521-25.7607-68.1914 0.0313-94.1436 25.0566-25.2158 68.7686-25.248 93.8563 0 13.8555 13.9199 50.6562 70.5918 45.5996 108.447h2.3047c-5.0879-37.8555 31.7441-94.5273 45.5996-108.447 25.0879-25.248 68.7998-25.2158 93.8564 0 25.792 25.9521 25.792 68.1914 0 94.1436-4.3525 4.416-10.5928 9.3438-17.8564 14.3037h101.248z m-341.91999999999996-85.888c-13.4082 13.5039-13.4082 35.5205 0 49.0244 13.792 13.8877 56 36.8633 78.1123 36.8633 4.5752 0 5.9199-1.0557 5.9199-1.0557 7.4561-7.7119-13.9844-63.1357-35.5527-84.832-6.4951-6.5283-15.1035-10.1123-24.2236-10.1123-9.1523 0-17.7598 3.584-24.2559 10.1123z m101.91999999999996 405.88750000000005v-192h-176v192h176z m0-223.9995v-64h-23.8076-184.192v64h208z m85.44-181.888c-21.5684 21.6963-43.0088 77.1201-35.584 84.832 0.0313 0.0322 1.376 1.0557 5.9512 1.0557 22.1123 0 64.3203-22.9756 78.1123-36.8633 13.4082-13.5039 13.4082-35.5205 0-49.0244-12.96-12.9922-35.4883-13.0234-48.4795 0z m122.56 405.88750000000005v-192h-176v192h176z m32-223.9995v-64h-184.192-23.8076v64h208z"></path></svg> 