<svg xmlns="http://www.w3.org/2000/svg" viewBox="0 0 512 512.0016"><path d="M431.166 194.69c36.6797 2.3662 65.7217 33.0215 65.6143 70.2383v30.7627c0 37.4326-29.2578 68.0879-66.1514 70.3467-3.6572 56.1475-31.3008 84.0068-54.6426 97.667-16.5645 9.6807-33.2363 13.4453-43.7783 14.9512-5.2705 19.1465-22.8027 33.3447-43.6699 33.3447h-32.377c-24.9541 0-45.2842-20.4365-45.2842-45.3916s20.3301-45.2842 45.2842-45.2842h32.2695c20.1143 0 37.2168 13.123 43.1328 31.3008 21.5117-3.5498 67.8721-19.1465 73.1426-86.4805h-18.0703c-7.0996 0-12.9082-5.8086-12.9082-12.9072v-145.855c0-7.0996 5.8086-12.9082 12.9082-12.9082h18.5v-19.4688c0-85.082-60.5576-149.189-141.015-149.189h-16.2422c-80.3496 0-141.015 64.1074-141.015 149.189v19.4688h18.5c7.0996 0 12.9082 5.8086 12.9082 12.9082v145.963c0 7.0986-5.8086 12.9072-12.9082 12.9072h-39.6904c-38.8301 0-70.4541-31.623-70.4541-70.4541v-30.7627c0-37.3242 29.1504-67.8721 65.8291-70.3457v-19.6846c0-47.1123 16.6719-90.8906 46.8975-123.375 30.9785-33.3438 73.5732-51.6299 120.04-51.6299h16.2422c46.4668 0 89.0625 18.2861 120.04 51.6299 30.2256 32.4844 46.8975 76.2627 46.8975 123.375v19.6846z m-318.494 145.64v-120.04h-26.7832c-24.6318 0-44.6387 20.0068-44.6387 44.6387v30.7627c0 24.6318 20.0068 44.6387 44.6387 44.6387h26.7832z m175.86600000000004 145.85560000000004c10.7559 0 19.4688-8.7119 19.4688-19.4688 0-10.7559-8.7129-19.4688-19.4688-19.4688h-32.377c-10.7559 0-19.4688 8.7129-19.4688 19.4688 0 10.7568 8.7129 19.4688 19.4688 19.4688h32.377z m182.534-190.49460000000005v-30.7627c0-24.6318-20.0068-44.6387-44.6387-44.6387h-26.7832v120.04h26.7832c24.6318 0 44.6387-20.0068 44.6387-44.6387z"></path></svg> 