<svg xmlns="http://www.w3.org/2000/svg" viewBox="0 0 512.0001 512.0016"><path d="M505.1051 44.44c4.7119 9.2354 6.8428 21.7705 6.8946 40.6621 0 16.2988-1.75 32.5977-5.2207 48.4326-3.3848 15.4229-8.4238 30.5928-14.9814 45.0986-6.4316 14.2227-14.4004 27.9375-23.668 40.7676-9.1719 12.7031-19.7148 24.6367-31.2998 35.4746-11.5859 10.8271-24.3428 20.6631-37.9004 29.2227-13.6738 8.6455-28.2949 16.0674-43.4561 22.0557-7.5293 2.9785-15.2295 5.6113-23.0459 7.8984v6.7266c12.1543 3.4502 21.085 14.6416 21.085 27.8857 0 15.9854-13.0059 28.9912-28.9902 28.9912-15.9854 0-28.9912-13.0059-28.9912-28.9912 0-13.2441 8.9307-24.4355 21.085-27.8857v-2.6279c-3.0332 0.6895-6.0742 1.3447-9.129 1.9297-14.2744 2.7353-28.8994 4.3047-43.582 4.7236v1.4267l36.0537 71.5908c1.1269 2.2363 1.1269 4.875 0 7.1114l-36.8994 73.2695c-1.3428 2.668-4.0732 4.3506-7.0605 4.3506-2.9863 0-5.7168-1.6826-7.0606-4.3506l-36.8994-73.2695c-1.1269-2.2363-1.1269-4.875 0-7.1114l36.0537-71.5908v-1.415c-17.8301-0.5088-35.5166-2.75-52.7109-6.6611v2.623c12.1543 3.4502 21.085 14.6416 21.085 27.8857 0 15.9854-13.0059 28.9912-28.9912 28.9912-15.9844 0-28.9902-13.0059-28.9902-28.9912 0-13.2441 8.9307-24.4355 21.085-27.8857v-6.7217c-14.2607-4.1758-28.1357-9.5313-41.4121-15.9893-17.5215-8.5293-34.0303-18.9873-49.042-31.0898-14.96-12.0596-28.4443-25.7432-40.0615-40.6719-2.6768-3.4375-2.0654-8.4131 1.3809-11.0908 1.4023-1.0967 3.0781-1.666 4.8496-1.666 2.456 0 4.7334 1.1064 6.2422 3.0469 10.8789 13.958 23.498 26.7676 37.5088 38.0684 14.085 11.3545 29.5723 21.1689 46.0391 29.1816 16.7607 8.1592 34.5469 14.4424 52.8691 18.6914 18.8809 4.3643 38.4043 6.5791 58.0342 6.5791h0.0225c16.3398 0 32.6592-1.5391 48.5146-4.5654 15.4453-2.9619 30.6377-7.3691 45.1533-13.1035 14.2432-5.6299 27.9697-12.5986 40.8203-20.7158 12.7139-8.0332 24.6797-17.2588 35.5391-27.4102 10.8574-10.1631 20.7148-21.3271 29.2861-33.1875 8.6543-11.9658 16.0869-24.7539 22.0859-38.0156 6.1035-13.4941 10.7959-27.6104 13.9365-41.9688 3.2158-14.7285 4.8496-29.8789 4.8496-45.0488 0.0107-11.8916-1.0439-21.6318-3.0674-28.1895-1.624-5.2813-3.7217-8.6328-6.4004-10.2568-1.5811-0.9492-3.3613-1.3701-5.7881-1.3926h-0.0723c-3.3965 0-7.9072 1.0342-13.0635 2.9844-5.1016 1.9092-11.1426 4.7764-18.4795 8.7822-8.6875 4.7324-18.5137 10.6689-28.918 16.9619-6.167 3.7422-12.5674 7.6006-19.2402 11.5439-15.876 9.3291-37.0137 21.2627-59.7432 30.7305-22.0322 9.1797-42.5693 14.8926-62.582 17.4287-2.8066 9.9707-11.9756 17.3047-22.832 17.3047-10.8594 0-20.0312-7.3379-22.834-17.3135-23.2969-2.9668-47.4668-10.2695-73.6611-22.2598-24.6699-11.291-47.0605-24.8369-66.8066-36.792-5.1865-3.1309-10.0879-6.0938-14.832-8.8975-16.2686-9.6777-26.6943-15.043-34.8643-17.9326-4.6387-1.666-8.75-2.541-11.8818-2.541h-0.0527c-2.4258 0.0225-4.2178 0.4434-5.7881 1.3926-1.6865 1.0322-3.0781 2.6553-4.3545 5.0918-3.3525 6.2412-5.166 18.0908-5.1132 33.3555 0 18.8496 2.5098 37.5723 7.4648 55.6533 4.8066 17.542 11.9443 34.5576 21.1895 50.5508 1.0557 1.8242 1.3398 3.9541 0.791 5.9883-0.5371 2.0459-1.8438 3.7539-3.6787 4.8076-1.2012 0.6953-2.5713 1.0654-3.9531 1.0654-2.8154 0-5.4394-1.5068-6.8526-3.9433-9.9199-17.1514-17.5742-35.4111-22.749-54.293-5.3252-19.4512-8.0234-39.5762-8.0234-59.8281 0.0098-13.959 1.2022-24.374 3.7529-32.7979 2.709-9.002 7.1904-15.4541 13.3125-19.1777 3.9531-2.4033 8.7607-3.6787 13.9053-3.6787h0.0957c5.1338 0.0215 10.6055 1.1064 17.2256 3.4472 10.8604 3.8906 22.8994 10.5 37.6475 19.2402 4.4805 2.6563 9.0449 5.418 13.874 8.3379 10.1094 6.126 20.5674 12.4512 31.6797 18.7246 19.2402 10.8691 36.3506 19.1553 52.3232 25.333 17.7803 6.875 34.335 11.2705 50.3984 13.3711 3.6426-8.4287 12.0342-14.3438 21.7842-14.3438 9.7461 0 18.1338 5.9102 21.7793 14.3311 50.4844-6.5947 97.5098-35.0479 135.607-58.1211 3.9326-2.3818 7.6533-4.6279 11.333-6.831 15.1602-9.0244 26.7246-15.4326 37.5205-19.5029 7.2529-2.6982 13.1973-3.9629 18.6904-3.9844h0.0967c5.1445 0 9.9512 1.2744 13.8945 3.6787 4.1221 2.4883 7.6328 6.3994 10.1846 11.3115z m-249.10500000000002 90.74600000000001c4.3604 0 7.9072-3.5469 7.9073-7.9063 0-4.3604-3.5469-7.9072-7.9073-7.9072s-7.9072 3.5469-7.9072 7.9072c0 4.3594 3.5469 7.9063 7.9072 7.9063z m-55.345999999999975 213.4791c0-7.2666-5.9121-13.1777-13.1787-13.1777-7.2656 0-13.1777 5.9121-13.1777 13.1777s5.9121 13.1777 13.1777 13.1777c7.2666 0 13.1787-5.9121 13.1787-13.1777z m83.39200000000002 52.71289999999999l-28.0459-55.6904-28.0459 55.6904 28.0459 55.6904z m53.65599999999995-52.71289999999999c0-7.2666-5.9121-13.1777-13.1777-13.1777-7.2666 0-13.1787 5.9121-13.1787 13.1777s5.9111 13.1777 13.1787 13.1777c7.2666 0 13.1777-5.9121 13.1777-13.1777z m-65.57 47.124000000000024c3.0879 3.0889 3.0879 8.0938 0 11.1826l-10.542 10.542c-1.5439 1.543-3.5674 2.3154-5.5908 2.3154s-4.0469-0.7725-5.5908-2.3154l-10.542-10.542c-3.0879-3.0889-3.0879-8.0938 0-11.1826 3.0889-3.0869 8.0938-3.0869 11.1826 0l4.9512 4.9512 4.9492-4.9512c3.0889-3.0869 8.0938-3.0869 11.1826 0z"></path></svg> 