<svg xmlns="http://www.w3.org/2000/svg" viewBox="0 0 512 512.0016"><path d="M353.191 193.772c25.7061 0 46.6211 20.915 46.6211 46.6211 0 25.707-20.915 46.623-46.6221 46.623h-194.382c-25.708 0-46.6201-20.915-46.6201-46.623 0-25.707 20.915-46.6211 46.623-46.6211 0.0234 0 0.0479 0.0039 0.0732 0.0039h51.7549c5.1924 0 9.3994 4.209 9.3995 9.3994 0 5.1914-4.207 9.4004-9.3995 9.4004h-51.9736c-15.2744 0.0781-27.6787 12.5264-27.6787 27.8174 0 15.3428 12.4824 27.8232 27.8232 27.8232s27.8213-12.4814 27.8213-27.8232c0-5.1904 4.207-9.3994 9.4004-9.3994s9.4004 4.209 9.4004 9.3994c0 10.4209-3.4385 20.0518-9.2363 27.8232h119.609c-5.7988-7.7715-9.2363-17.4043-9.2363-27.8232 0-10.418 3.4356-20.0469 9.2324-27.8174h-14.4326c-5.1934 0-9.4004-4.209-9.4004-9.4004 0-5.1904 4.207-9.3994 9.4004-9.3994h51.6777c0.0479 0 0.0957-0.0039 0.1445-0.0039z m0 74.44299999999998c15.3408 0 27.8223-12.4814 27.8213-27.8232 0-15.292-12.4033-27.7393-27.6758-27.8174h-0.29c-15.2744 0.0781-27.6768 12.5254-27.6768 27.8174 0 15.3428 12.4805 27.8232 27.8213 27.8232z m148.865-238.51999999999998c4.4102 0.8652 7.5889 4.7295 7.5908 9.2227v136.884c0 2.7998-1.2481 5.4521-3.4043 7.2382-2.1572 1.7881-4.9922 2.5215-7.747 1.9971l-48.3692-9.166v186.465c0 82.5254-67.1338 149.665-149.651 149.665h-88.9473c-82.5195 0-149.653-67.1396-149.653-149.665v-186.464l-48.3682 9.166c-2.75 0.5225-5.5908-0.2109-7.747-1.9971s-3.4033-4.4385-3.4033-7.2382v-136.885c0-4.4932 3.1797-8.3574 7.5888-9.2227l150.304-29.5186c2.7559-0.541 5.6143 0.1777 7.7832 1.9639 0.2617 0.2168 0.5078 0.4443 0.7422 0.6836l0.001-0.001c0.0088 0.0098 0.0186 0.0186 0.0283 0.0273l0.001 0.001c23.1533 23.6211 54.1182 36.6309 87.1963 36.6309 33.0908 0 64.0664-13.0195 87.2256-36.6592l0.001 0.001c0.2344-0.2393 0.4814-0.4697 0.7422-0.6836 2.169-1.7842 5.0225-2.5039 7.7832-1.9639z m-330.596 0.4480000000000075v6.0996c0 46.6143 37.9248 84.5391 84.54 84.5391s84.54-37.9248 84.54-84.5391v-6.1006c-24.2412 18.2686-53.5889 28.1416-84.54 28.1426-30.9512 0-60.2988-9.874-84.54-28.1416z m-90.42289999999998 341.9547c4.7705 64.3965 56.3447 115.972 120.736 120.738-4.7725-64.3926-56.3438-115.966-120.736-120.738z m210.33190000000002 121.10249999999996c1.3603-21.8701 7.4375-42.4795 17.2295-60.8262-15.1162-11.3379-33.5205-17.5186-52.5928-17.5186-19.0674 0-37.4766 6.1807-52.6006 17.5186 9.7891 18.3477 15.8662 38.9561 17.2275 60.8262h70.7363z m18.859999999999957-0.36230000000000473c64.3896-4.7686 115.963-56.3438 120.734-120.738-64.3916 4.7734-115.963 56.3457-120.734 120.738z m180.61600000000004-328.3839h-0.002v-117.803l-131.504-25.8242v15.415c0 56.9805-46.3584 103.339-103.34 103.339s-103.34-46.3574-103.34-103.339v-15.415l-131.504 25.8242v117.802l48.3672-9.166c0.5811-0.1094 1.167-0.1641 1.75-0.1641 2.1709 0 4.2959 0.752 5.9961 2.1611 2.1572 1.7861 3.4043 4.4394 3.4043 7.2393v188.715c46.5469 2.9004 87.3975 27.165 112.828 63.0889 18.1055-13.1279 39.9238-20.2725 62.5039-20.2725 22.584 0 44.4004 7.1436 62.4941 20.2725 25.4297-35.9229 66.2803-60.1875 112.826-63.0879v-188.715c0-2.7998 1.2481-5.4531 3.4043-7.2393 2.1572-1.7861 5-2.5195 7.7471-1.997z"></path></svg> 