<svg xmlns="http://www.w3.org/2000/svg" viewBox="0 0 512.0002 512.0016"><path d="M509.061 165.858c3.919 3.919 3.919 9.7979 0 13.7178l-89.1631 88.1836v221.438c0 5.8789-3.9199 9.7979-9.7988 9.7978h-307.662c-5.8789 0-9.7988-3.919-9.7989-9.7978v-221.438l-89.1631-88.1836-0.9795-0.9805c-3.9199-3.919-2.9394-9.7979 0.9795-13.7168l115.618-97.9824c0.9805-0.9795 2.9394-1.959 4.8995-1.959l48.9912-5.8789-7.8389-9.7988c-0.9795 0-0.9795-0.9795-0.9795-0.9795-2.9394-4.8994-1.96-10.7783 2.9394-13.7178l31.3535-20.5762c0.9805 0 1.96-0.9795 2.9395-0.9795h0.9805 0.9794 107.78c2.9394 0 5.8789 2.9394 5.879 2.9395l27.4346 19.5967c3.919 2.9394 3.919 9.7979 0.9795 13.7168l-7.8379 9.7988 48.9902 5.8789c1.96 0 3.9199 0.9795 4.8994 1.959l116.599 97.9824z m-186.16499999999996-120.517l-11.7578-7.8389-40.1729 48.9912c0 0.9795-0.9795 0.9795-0.9795 0.9795l6.8584 16.6572z m-121.49900000000002-9.798000000000009l-14.6973 9.7978 47.0312 58.7891 8.8184-17.6367z m45.07300000000001 443.8574v-351.755l-0.9805 0.9795c-0.9795 0.9805-1.959 1.96-2.9394 2.9394-3.919 2.9394-10.7773 1.96-13.7168-1.9589l-42.1328-52.9102-57.8086 6.8584-104.841 89.1631 67.6074 66.6279v-34.2939c0-5.8789 3.919-9.7979 9.7978-9.7979s9.7988 3.919 9.7989 9.7979v274.35h134.234 0.9804z m10.777000000000015-408.58439999999996h0.9805l31.3535-38.2129h-65.6475l31.3545 38.2129h1.9589z m161.66999999999996 169.50699999999998l67.6074-66.6279-104.84-89.1631-57.8096-7.8389-41.1523 52.9102c-1.96 2.9394-4.8994 3.9199-7.8389 3.9199h-1.959c-3.9199 0-6.8594-2.9394-7.8388-5.8789v42.1318h7.8388c5.8789 0 9.7979 3.919 9.7979 9.7979s-3.919 9.7988-9.7979 9.7988h-7.8388v58.7891h7.8388c5.8789 0 9.7979 3.919 9.7979 9.7979s-3.919 9.7979-9.7979 9.7978h-7.8388v58.7891h7.8388c5.8789 0 9.7979 3.9199 9.7979 9.7988s-3.919 9.7979-9.7979 9.7979h-7.8388v58.7891h7.8388c5.8789 0 9.7979 3.919 9.7979 9.7978s-3.919 9.7988-9.7979 9.7989h-7.8388v55.8496h134.235v-274.35c0-5.8789 3.919-9.7979 9.7978-9.7979s9.7979 3.919 9.7979 9.7979v34.2939z"></path></svg> 