<svg xmlns="http://www.w3.org/2000/svg" viewBox="0 0 512.0003 512.0016"><path d="M512 329.724c0 0.0186-0.0029 0.0371-0.0029 0.0566-0.1152 20.0645-10.9111 32.8887-27.8486 38.8955-8.6963 3.084-17.4795 3.9697-25.0215 3.6914l-433.273-0.0078c-9.4209 0-17.0576-7.6328-17.0576-17.0576v-17.0498c0-5.0439 2.2041-9.5635 5.6845-12.6865-1.5879-3.4394-3.2871-7.5527-4.9746-12.3115-15.6914-44.2354-13.5898-95.3477 18.6807-148.854 1.0527-1.4746 2.7148-3.4394 4.9287-5.4345 5.7266-5.1602 12.1855-7.8398 19.3369-5.4024 8.6435 2.9473 13.9766 12.4883 17.04 28.9502 0.0742 0.3877 0.1436 0.7832 0.2139 1.1777 0.0615 0.3555 0.1299 0.6943 0.1904 1.0567 0.5449 1.1924 1.7568 3.1084 3.7403 5.0771 12.7031 12.6152 38.2549 9.6865 83.5088-24.7969 0.2246-0.1709 0.4609-0.3086 0.6933-0.4541 0.2402-0.2344 0.4951-0.4609 0.7705-0.6738 4.3848-3.376 8.3652-6.5596 12.8623-10.2959 0.0137-0.0117 0.0283-0.0225 0.041-0.0332 0.2051-0.1455 0.4365-0.3047 0.6622-0.46 2.542-1.7519 6.3662-4.0859 11.0732-6.4267 6.2852-3.126 12.543-5.4043 18.6299-6.459 7.3438-1.2715 14.1309-0.6982 19.9746 2.2275 1.3506 0.6758 2.6504 1.4775 3.8955 2.4102 4.1133 3.0869 15.2334 10.3447 29.749 19.5498 0.4219 0.2676 0.8428 0.5342 1.2695 0.8047 1.6963 1.0752 3.4326 2.1728 5.2119 3.2939 0.0459 0.0283 0.0908 0.0576 0.1367 0.086 0.0576 0.0371 0.1191 0.0752 0.1768 0.1113 2.583 1.6289 5.25 3.3047 7.9765 5.0127 0.3838 0.2412 0.7646 0.4795 1.1514 0.7217l4.2676-4.2676c3.331-3.331 8.7305-3.331 12.0615 0 3.331 3.3301 3.331 8.7305 0 12.0615l-1.4697 1.4688c5.499 3.4131 11.1055 6.8809 16.7158 10.334l4.542-4.542c3.331-3.331 8.7305-3.331 12.0615 0s3.331 8.7305 0 12.0615l-1.6534 1.6533c7.6797 4.6934 15.1592 9.2373 22.1348 13.4443l3.5713-3.5713c3.331-3.331 8.7305-3.331 12.0615 0s3.331 8.7305 0 12.0615l-0.5468 0.5459c14.582 8.665 24.8154 14.4961 26.3174 14.7988 0.0068 0.001 0.0146 0.0039 0.0224 0.0049 0.167 0.0342 0.3516 0.0771 0.5459 0.126 0.1484 0.0352 0.3096 0.0791 0.4707 0.123 0.0137 0.0039 0.0264 0.0068 0.0401 0.0107 2.71 0.7432 7.3281 2.5391 14.0732 5.4219 8.3467 3.5527 19.7207 8.6719 33.8945 15.1914 11.6084 5.3379 21.2773 9.2041 42.8203 17.3926 0.958 0.3633 0.958 0.3633 1.9169 0.7285 1.2471 0.4746 1.2471 0.4746 2.4952 0.9483 20.3682 7.7529 34.2373 25.0244 34.2373 49.2852z m-44.70999999999998-35.01999999999998c-21.9014-8.3242-31.8125-12.2861-43.8877-17.8389-5.4766-2.5185-10.6465-4.874-15.4062-7.0195l-0.4824 0.7705c-15.709 25.0039-48.709 32.5508-73.7119 16.8525l-40.541-25.457-59.1826 59.1826h259.99c-2.5918-12.0195-10.7842-20.4033-22.374-24.8145l-2.4883-0.9473z m-275.856 26.49000000000001h18.5215l68.4873-68.4873-11.3779-7.1436z m-42.644000000000034 0v-0.001h18.5215l84.9346-84.9355-11.376-7.1435z m-80.29289999999999-113.71700000000001h0.001v11.3721c0 4.7129 3.8144 8.5283 8.5283 8.5283h68.2305c4.7139 0 8.5283-3.8154 8.5283-8.5283v-30.3135c-38.6592 26.2773-66.7334 30.7207-85.2881 18.9414z m113.3319-40.331999999999994c-1.0938 0.918-2.1816 1.8184-3.2627 2.708l164.306 103.171c16.582 10.4111 38.333 5.8057 49.3359-10.1729-7.5606-3.2637-12.6797-5.3135-14.0029-5.6152-0.0225-0.0049-0.0527-0.0137-0.0742-0.0176-0.1445-0.0293-0.3193-0.0781-0.5244-0.1455-3.6885-1.2178-17.0771-8.7021-34.7334-19.0859l-12.4834 12.4824c-3.331 3.331-8.7305 3.331-12.0615 0-3.3301-3.3301-3.3301-8.7305 0-12.0615l9.4062-9.4063c-7.1113-4.2539-14.5947-8.7725-22.1855-13.3926l-9.2685 9.2686c-3.331 3.331-8.7305 3.331-12.0615 0s-3.331-8.7305 0-12.0615l6.3603-6.3604c-5.6445-3.4668-11.2529-6.9297-16.7236-10.3262l-11.6934 11.6934c-3.331 3.331-8.7305 3.331-12.0615 0s-3.331-8.7305 0-12.0615l8.9024-8.9023c-4.5117-2.832-8.8359-5.5615-12.9053-8.1475-14.6572-9.3145-25.9883-16.752-30.5928-20.2061-0.5889-0.4424-1.2529-0.8076-1.9913-1.0927-2.2217-0.8584-5.1172-1.0019-8.7177-0.3789-4.2432 0.7334-9.0264 2.4736-13.9541 4.9248-2.4688 1.2275-4.8057 2.5488-6.9219 3.8652-1.2383 0.7715-2.1006 1.3486-1.9795 1.2295-0.0371 0.0303-0.0742 0.0615-0.1113 0.0918z m-139.3964 6.61099999999999c-29.0576 48.2246-30.9424 94.0713-16.8506 133.793 1.7949 5.0586 3.709 9.5195 5.7656 13.6445h93.3184l101.385-101.385-55.208-34.665v33.7031c0 14.1348-11.4512 25.5869-25.5859 25.5869h-68.2314c-14.1338 0-25.5859-11.4521-25.5859-25.5869v-39.1729c-1.6826-6.5967-3.4609-9.6152-4.4922-9.9668 0.1934 0.0654-0.8047 0.4785-2.4131 1.9287-1.1602 1.0459-2.0713 2.1231-2.1015 2.1201z m436.0144 178.8427c7.8369-2.7793 13.0518-7.2617 15.2734-14.3477h-467.43-0.4375v17.0498s433.812 0.0264 434.157 0.04c5.3047 0.1885 12.1084-0.498 18.4365-2.7422z"></path></svg> 