<svg xmlns="http://www.w3.org/2000/svg" viewBox="0 0 512 512.0016"><path d="M435 288.783c0 24.3271-14.6768 45.2803-35.6318 54.5039 8.0049 10.1406 12.8018 22.9238 12.8018 36.8174 0 23.6455-13.8594 44.1133-33.8809 53.7129 5.9717 8.7422 9.0029 19.1104 8.6182 29.9434-0.9629 27.0518-23.3145 48.2402-50.8877 48.2402h-122.413c-75.3242 0-136.606-61.2803-136.606-136.606v-100.861c0-63.9932 44.2383-117.825 103.731-132.582v-77.874c0-35.332 28.7441-64.0762 64.0762-64.0762 35.3311 0 64.0752 28.7441 64.0752 64.0762v73.8496h46.6221c32.2842 0 59.4648 25.7383 60.5889 57.375 0.5303 14.8994-4.3691 29.0625-13.8379 40.3428 19.4033 9.8213 32.7441 29.9443 32.7441 53.1387z m-226.529-224.70600000000002h0.002v73.9805c1.7061-0.0635 3.4141-0.1309 5.1357-0.1309h67.5352v-73.8496c0-20.0361-16.3008-36.3369-36.3359-36.3369-20.0361 0-36.3369 16.3008-36.3369 36.3369z m166.998 256.497c17.5293 0 31.7881-14.2656 31.7881-31.7949s-14.2607-31.792-31.792-31.792h-126.025c-7.6602 0-13.8691-6.209-13.8691-13.8691s6.209-13.8701 13.8691-13.8701h107.159c8.706 0 16.832-3.4512 22.8809-9.7188 6.043-6.2627 9.2012-14.5176 8.8906-23.2451-0.5986-16.8828-15.3438-30.6201-32.8652-30.6201h-141.898c-60.0303 0-108.867 48.8369-108.867 108.867v100.861c0 60.0303 48.8369 108.867 108.867 108.867h122.413c12.3506 0 22.7422-9.6396 23.165-21.4863 0.2178-6.126-1.9981-11.9219-6.2392-16.3164-4.2441-4.3965-9.9492-6.8203-16.0576-6.8203h-87.4463c-7.6602 0-13.8691-6.209-13.8691-13.8691s6.209-13.8701 13.8691-13.8701h103.196c17.5312 0 31.793-14.2598 31.793-31.791s-14.2617-31.793-31.793-31.793h-103.196c-7.6602 0-13.8691-6.21-13.8691-13.8701 0-7.6592 6.209-13.8691 13.8691-13.8691h103.196 22.8311z"></path></svg> 