<svg xmlns="http://www.w3.org/2000/svg" viewBox="0 0 512.0005 512.0016"><path d="M137.4604 391.0283c-21.0234 0-38.1279-17.1035-38.1279-38.1279 0-21.0234 17.1045-38.127 38.1279-38.127s38.1279 17.1035 38.1279 38.127c0 21.0244-17.1045 38.1279-38.1279 38.1279z m0-59.9153c-12.0146 0-21.7871 9.7744-21.7871 21.7871 0 12.0137 9.7734 21.7881 21.7871 21.7881s21.7871-9.7744 21.7871-21.7881c0-12.0127-9.7734-21.7871-21.7871-21.7871z m237.07999999999998-16.339999999999975c21.0234 0 38.1279 17.1035 38.1279 38.127 0 21.0244-17.1045 38.1279-38.1279 38.1279s-38.1279-17.1035-38.1279-38.1279c0-21.0234 17.1045-38.127 38.1279-38.127z m0 59.91549999999995c12.0146 0 21.7871-9.7744 21.7871-21.7881 0-12.0127-9.7734-21.7871-21.7871-21.7871s-21.7871 9.7744-21.7871 21.7871c0 12.0137 9.7734 21.7881 21.7871 21.7881z m-224.753-248.26849999999996c-6.7412 0-20.71 6.0352-25.332 10.9463l-52.4961 55.7793h128.242l0.001-74.8955c0-4.5117 3.6563-8.1699 8.1699-8.1699h110.267c8.4824 0 20.8066 7.8203 24.418 15.4961l33.6113 72.2949c1.1758 2.5303 0.9785 5.4863-0.5215 7.8388-1.501 2.3525-4.0967 3.7764-6.8877 3.7764h-316.21c-3.2598 0-6.207-1.9365-7.5-4.9297-1.292-2.9922-0.6846-6.4658 1.5498-8.8398l65.457-69.5508c7.7852-8.2685 25.877-16.0859 37.2314-16.0859h25.9043c4.5127 0 8.1699 3.6582 8.1699 8.1699 0 4.5127-3.6572 8.1699-8.1699 8.1699h-25.9043z m66.755-1.4210854715202004e-14l-0.001 66.7256h139.91l-28.1963-60.6455c-1.0967-2.0693-7.2393-5.9678-9.6396-6.0801h-102.073z m295.458 154.301v39.5c0 22.5264-16.4355 40.8516-36.6367 40.8516h-19.5312c-4.1123 41.2275-38.999 73.5322-81.292 73.5322-45.0508 0-81.7021-36.6523-81.7021-81.7021 0-45.0508 36.6514-81.7021 81.7021-81.7021 42.293 0 77.1797 32.3037 81.292 73.5312h19.5312c11.1924 0 20.2959-10.9951 20.2959-24.5107v-31.9395c-26.4082-3.958-46.7246-26.791-46.7246-54.2842 0-3.1738 0.2793-6.3193 0.8154-9.4141l-31.0449-10.3486c-10.7295-3.5762-22.4521-13.9902-27.2676-24.2246l-33.5967-71.3916c-6.3447-13.4863-24.2979-24.8789-39.2021-24.8789h-168.852c-15.8008 0-38.2998 9.7207-49.1289 21.2275l-75.3389 80.0498c-4.6992 4.9922-8.9785 15.7832-8.9785 22.6396v102.563c0 13.5156 10.9961 24.5107 24.5098 24.5107h15.3174c4.1123-41.2275 38.999-73.5322 81.292-73.5322s77.1807 32.3047 81.293 73.5322h49.5752c4.5137 0 8.1699 3.6582 8.1699 8.17 0 4.5127-3.6563 8.1709-8.1699 8.1709h-49.5752c-4.1123 41.2275-39 73.5312-81.293 73.5312s-77.1797-32.3037-81.292-73.5312h-15.3174c-22.5254 0-40.8506-18.3252-40.8506-40.8516v-102.563c0-10.9805 5.8945-25.8438 13.4209-33.8398l75.3379-80.0479c13.917-14.7871 40.7236-26.3691 61.0283-26.3691h168.852c21.2334 0 44.9482 15.0488 53.9883 34.2607l33.5957 71.3916c2.8623 6.0811 11.2744 13.5547 17.6514 15.6807 0 0 38.1943 12.7314 38.2129 12.7373 27.5215 9.1738 49.9131 40.2402 49.9131 69.251z m-374.54 6.817999999999984c-36.04 0-65.3613 29.3213-65.3613 65.3613 0 36.041 29.3213 65.3623 65.3613 65.3623s65.3613-29.3213 65.3613-65.3623c0-36.04-29.3213-65.3613-65.3613-65.3613z m237.07999999999998 130.7237c36.04 0 65.3613-29.3213 65.3613-65.3623 0-36.04-29.3213-65.3613-65.3613-65.3613s-65.3613 29.3213-65.3613 65.3613c0 36.041 29.3213 65.3623 65.3613 65.3623z m90.73500000000001-184.26569999999998c0 18.1016 12.5439 33.3213 29.3916 37.4443-3.3516-16.2266-14.9287-32.2871-29.2646-40.5957-0.084 1.0439-0.127 2.0957-0.127 3.1514z"></path></svg> 