<svg xmlns="http://www.w3.org/2000/svg" viewBox="0 0 512 512.0016"><path d="M422.092 355.6211c2.5693 5.0313-1.1475 10.9131-6.6729 10.9121-2.7285 0-5.3604-1.4941-6.6855-4.0908l-85.5947-167.592c-30.4355 16.21-104.531 16.5596-134.251-0.042l-13.7412 26.9072c-1.8857 3.6904-6.4063 5.1514-10.0918 3.2695-3.6894-1.8857-5.1523-6.4033-3.2656-10.0938l15.4072-30.168c-7.7578-11.9961-1.8867-28.2246 11.8584-32.3545-0.8721-14.2861-2.4893-27.8828-2.917-31.3359-8.7852-23.9844-6.7813-51.5029-6.7813-99.417 0-6.5898 2.9697-12.6904 7.9825-16.7617 14.0449-11.4092 35.208-1.4443 35.208 16.7617 0.041 21.8105-0.0781 22.1455 0.081 23.793 0.1963 2.0547 0.96 4.7725 2.7627 5.7422 22.293 8.3975 27.7588 25.3125 30.4902 26.4404 2.4629 0.1826 7.7285-17.7734 30.7373-26.4414 1.8857-1.0107 2.6191-3.8711 2.7861-6.0225 0.2207-2.8457-0.1084-22.9248 0.1661-25.6777 2.1846-21.9883 32.6719-26.8398 41.3838-6.2441 2.2705 5.3711 1.7002 2.7676 1.7002 65.5146 0 0.1133-0.1543 5.9834-0.7061 12.7139-0.3564 4.1269-4 7.1777-8.1182 6.8271-4.126-0.3555-7.1816-3.9912-6.8271-8.1181 0.918-11.084 0.6328-18.0449 0.6514-30.1582h-18.584c-7.6016 8.8291-14.5645 3.1406-27.7002 22.4707-3.1963 4.7012-5.9023 8.5381-12.249 9.8447v0.001c-5.6396 1.1426-11.0859-0.9033-14.5801-4.6514-5.2051-5.5801-8.6836-16.6201-24.6738-22.5488-1.8535-0.6816-4.6729-2.4941-6.9307-5.1152h-18.585c0.0332 17.1992-0.708 38.6289 6.127 56.5859 1.2412 3.2695 3.3691 31.6533 3.6543 36.7217 8.1074 3.6211 1.0381 4.1748 20.9268 8.1738 34.3174 5.7705 70.5723-0.0088 76.6973-4.0722 1.7695-1.6894 4.1602-3.2285 6.1142-4.1016 0.5967-10.6318 1.6231-21.0371 2.4356-28.335 0.459-4.1172 4.1748-7.083 8.2851-6.6231 4.1172 0.459 7.082 4.1689 6.6231 8.2852-0.6191 5.5498-1.6318 15.4355-2.2617 25.7539 13.377 4.0186 19.8477 19.5703 11.7969 32.2324z m-117.632-334.0031c-0.0078 23.1904 0.0176 22.251-0.0234 23.3682h13.2168v-23.3682c0-3.6269-2.9336-6.5957-6.5977-6.5957-3.6221 0-6.5957 2.919-6.5957 6.5957z m-109.59299999999999-2.5659999999999954c-0.9014 2.1309-0.3486 1.7022-0.5156 25.9336h13.2168c-0.042-1.1231-0.0156-0.2695-0.0235-23.3682 0-7.2236-9.9072-9.1123-12.6777-2.5654z m128.36100000000002 154.566c0.8242-5.542-6.4932-9.9551-11.3291-5.167-13.1064 12.9199-93.9434 14.8496-112.363-0.5225-2.5469-2.1094-6.3584-2.0127-8.7881 0.3301-2.6182 2.5254-2.6943 6.709-0.1699 9.3281 21.4141 22.2197 129.475 17.3584 132.65-3.9687z m129.981 242.9357c5.5518 10.7783 2.4951 23.9121-7.2783 31.207-45.8604 34.2324-91.6641 9.542-115.478 33.3584-41.1113 41.0938-106.983 40.9453-147.961 0.9336-26.373-25.7568-69.8154 0.498-116.426-34.292-9.7744-7.2949-12.8291-20.4287-7.2666-31.2295l87.0469-170.438c1.8857-3.6894 6.4063-5.1494 10.0918-3.2686 3.6894 1.8848 5.1523 6.4023 3.2685 10.0908l-87.0605 170.462c-2.2051 4.2813-0.9844 9.4697 2.8916 12.3643 32.6719 24.3857 64.7773 13.5332 93.75 21.7959l39.7656-202.978c0.7969-4.0635 4.7314-6.707 8.8037-5.9179 4.0635 0.7979 6.7139 4.7383 5.918 8.8037l-40.3779 206.104c3.4893 2.0869 6.8613 4.6338 10.0752 7.7734 35.7197 34.873 92.2432 33.8086 126.875-0.8115 2.7422-2.7412 5.6191-5.0078 8.6133-6.8926l-40.3916-206.174c-0.7959-4.0664 1.8535-8.0059 5.918-8.8037 4.0771-0.7891 8.0068 1.8545 8.8027 5.918l39.7529 202.914c28.2402-7.9795 61.7227 2.6758 94.4189-21.7314 3.876-2.8945 5.0967-8.083 2.9043-12.3418l-15.2119-29.7842c-1.8848-3.6894-0.4209-8.206 3.2676-10.0898 3.6865-1.8867 8.206-0.4219 10.0908 3.2676z"></path></svg> 