<svg xmlns="http://www.w3.org/2000/svg" viewBox="0 0 512 512.0016"><path d="M419.897 223.126c15.2705 0 27.6787 12.4082 27.6787 27.6787v178.267c0 45.707-37.2236 82.9297-82.9297 82.9297h-217.293c-45.7061 0-82.9297-37.2227-82.9297-82.9297v-178.267c0-15.2705 12.4082-27.6787 27.6787-27.6787h291.633v-66.7041c0-70.5225-57.3721-127.788-127.788-127.788-70.5225 0-127.788 57.3721-127.788 127.788 0 7.9531-6.3633 14.3164-14.3164 14.3164-7.9541 0-14.3164-6.3633-14.3164-14.3164 0-86.3232 70.2031-156.421 156.421-156.421 86.3232 0 156.421 70.2041 156.421 156.421v66.7041h7.5293z m-0.9549999999999841 205.9453v0-177.312h-325.779v177.312c0 30.0117 24.3916 54.2969 54.2969 54.2969h217.187c30.0117 0 54.2959-24.3916 54.2959-54.2969z m-162.889-5.833000000000027c-29.5869 0-53.5537-24.0723-53.5537-53.5537s23.9668-53.5547 53.5537-53.5547c29.4814 0 53.5547 23.9668 53.5547 53.5547 0 29.4814-23.9668 53.5537-53.5547 53.5537z m0-78.5813c-13.7861 0-24.9209 11.3467-24.9209 25.0273 0 13.6797 11.1348 24.9209 24.9209 24.9209s24.9219-11.3467 24.9219-25.0273c0-13.6797-11.1357-24.9209-24.9219-24.9209z"></path></svg> 